<svg xmlns="http://www.w3.org/2000/svg" viewBox="0 0 20 20"><title>資產 6</title><g id="圖層_2" data-name="圖層 2"><g id="圖層_1-2" data-name="圖層 1"><path d="M19.62,12.42l-1.6-.9a.7.7,0,0,1-.37-.71,7.09,7.09,0,0,0,0-.81,7.09,7.09,0,0,0,0-.81A.7.7,0,0,1,18,8.48l1.6-.9a.71.71,0,0,0,.28-1L18,3.41a.78.78,0,0,0-1-.26l-1.61.9a.78.78,0,0,1-.82,0,8.31,8.31,0,0,0-1.46-.82.72.72,0,0,1-.45-.66V.73A.74.74,0,0,0,11.89,0H8.11a.74.74,0,0,0-.75.73V2.52a.72.72,0,0,1-.45.66A8.31,8.31,0,0,0,5.45,4a.78.78,0,0,1-.82,0L3,3.15a.78.78,0,0,0-1,.26L.1,6.59a.71.71,0,0,0,.28,1l1.6.9a.7.7,0,0,1,.37.71,7.09,7.09,0,0,0,0,.81,7.09,7.09,0,0,0,0,.81.7.7,0,0,1-.37.71l-1.6.9a.71.71,0,0,0-.28,1L2,16.59a.78.78,0,0,0,1,.26L4.63,16a.78.78,0,0,1,.82.05,8.31,8.31,0,0,0,1.46.82.72.72,0,0,1,.45.66v1.79a.74.74,0,0,0,.75.73h3.78a.74.74,0,0,0,.75-.73V17.48a.72.72,0,0,1,.45-.66A8.31,8.31,0,0,0,14.55,16a.78.78,0,0,1,.82-.05l1.61.9a.78.78,0,0,0,1-.26l1.89-3.18A.71.71,0,0,0,19.62,12.42ZM10,14.14A4.14,4.14,0,1,1,14.14,10,4.14,4.14,0,0,1,10,14.14Z"/></g></g></svg>