<svg xmlns="http://www.w3.org/2000/svg" viewBox="0 0 20 20"><title>資產 1</title><g id="圖層_2" data-name="圖層 2"><g id="圖層_1-2" data-name="圖層 1"><path d="M18.74,0H1.26A1.27,1.27,0,0,0,0,1.26V18.74A1.27,1.27,0,0,0,1.26,20H18.74A1.27,1.27,0,0,0,20,18.74V1.26A1.27,1.27,0,0,0,18.74,0ZM6.6,15.89a.3.3,0,0,1-.3.31H4.77a.3.3,0,0,1-.3-.31V9.83a.3.3,0,0,1,.3-.31H6.3a.3.3,0,0,1,.3.31Zm4.47,0a.31.31,0,0,1-.3.31H9.23a.31.31,0,0,1-.3-.31V6.16a.31.31,0,0,1,.3-.3h1.54a.31.31,0,0,1,.3.3Zm4.46,0a.3.3,0,0,1-.3.31H13.7a.3.3,0,0,1-.3-.31V8.12a.3.3,0,0,1,.3-.31h1.53a.3.3,0,0,1,.3.31Z"/></g></g></svg>