<svg xmlns="http://www.w3.org/2000/svg" viewBox="0 0 20 20"><defs><style>.cls-1{fill:none;}</style></defs><title>資產 2</title><g id="圖層_2" data-name="圖層 2"><g id="圖層_1-2" data-name="圖層 1"><path class="cls-1" d="M.18.62A.83.83,0,0,1,.26.5.83.83,0,0,0,.18.62Z"/><path class="cls-1" d="M15.91.37a1.5,1.5,0,0,1,.19.25A1.5,1.5,0,0,0,15.91.37Z"/><path class="cls-1" d="M.29,13.23A1.43,1.43,0,0,1,.15,13,1.43,1.43,0,0,0,.29,13.23Z"/><path d="M15.1.35a1.08,1.08,0,0,0-.24-.18A1.14,1.14,0,0,0,14.25,0H1.2A1.2,1.2,0,0,0,.63.14,1.41,1.41,0,0,0,.24.48L.17.59A1.17,1.17,0,0,0,0,1.2V11.79a1.24,1.24,0,0,0,.14.58,2.14,2.14,0,0,0,.13.19A1.23,1.23,0,0,0,1.2,13H14.25a1.18,1.18,0,0,0,.67-.2,1.21,1.21,0,0,0,.39-.42,1.24,1.24,0,0,0,.14-.58V1.2a1.17,1.17,0,0,0-.17-.61A1.08,1.08,0,0,0,15.1.35Z"/><path d="M18.55,3.82H17.4a.18.18,0,0,0-.19.19v8.23a2.39,2.39,0,0,1-2.38,2.38H3.91a.18.18,0,0,0-.19.19v1.24a1.45,1.45,0,0,0,1.45,1.46H18.55A1.45,1.45,0,0,0,20,16.05V5.27A1.45,1.45,0,0,0,18.55,3.82Z"/><path d="M20,19.57V15.7a.43.43,0,0,0-.43-.43h-4a.43.43,0,0,0-.3.74l4,3.87A.43.43,0,0,0,20,19.57Z"/><path d="M0,14.86V11.19a.41.41,0,0,1,.41-.41h3.8a.41.41,0,0,1,.28.7L.69,15.16A.41.41,0,0,1,0,14.86Z"/></g></g></svg>