<svg xmlns="http://www.w3.org/2000/svg" viewBox="0 0 20 20"><title>資產 3</title><g id="圖層_2" data-name="圖層 2"><g id="圖層_1-2" data-name="圖層 1"><path d="M13.71,2.23H10.34A2.88,2.88,0,0,0,7.53,0a3,3,0,0,0-.85.13l-.27.1a1.42,1.42,0,0,0-.25.12L5.92.49A3.17,3.17,0,0,0,5.4.94l-.26.33a2.87,2.87,0,0,0-.26.49c0,.09-.07.18-.1.27a1.17,1.17,0,0,0,0,.2H1.26A1.27,1.27,0,0,0,0,3.5V18.74A1.27,1.27,0,0,0,1.26,20H13.71A1.27,1.27,0,0,0,15,18.74V3.5A1.27,1.27,0,0,0,13.71,2.23ZM7.53,2a.94.94,0,0,1,.94.93.94.94,0,0,1-1.87,0,1,1,0,0,1,.27-.65A1,1,0,0,1,7.53,2ZM3.25,6.31a.3.3,0,0,1,.3-.3H11.6a.29.29,0,0,1,.3.3V7.64a.3.3,0,0,1-.3.3h-8a.31.31,0,0,1-.3-.3Zm7,10.32a.3.3,0,0,1-.3.3H3.55a.3.3,0,0,1-.3-.3V15.3a.31.31,0,0,1,.3-.3H10a.31.31,0,0,1,.3.3Zm1.64-4.5a.31.31,0,0,1-.31.31h-8a.31.31,0,0,1-.3-.31V10.81a.31.31,0,0,1,.3-.31H11.6a.31.31,0,0,1,.31.31Z"/><path d="M18.8,1.54a.36.36,0,0,0-.67,0L17,4.5a1.43,1.43,0,0,0-.09.5V18.74A1.31,1.31,0,0,0,18.28,20h.38A1.31,1.31,0,0,0,20,18.74V5a1.36,1.36,0,0,0-.09-.48Z"/></g></g></svg>